<svg xmlns="http://www.w3.org/2000/svg" viewBox="0 0 60 40" role="img" aria-label="United States flag">
  <rect width="60" height="40" fill="#fff"/>
  <g fill="#b22234"><rect y="0" width="60" height="3.08"/><rect y="6.15" width="60" height="3.08"/><rect y="12.31" width="60" height="3.08"/><rect y="18.46" width="60" height="3.08"/><rect y="24.62" width="60" height="3.08"/><rect y="30.77" width="60" height="3.08"/><rect y="36.92" width="60" height="3.08"/></g>
  <rect width="25.8" height="21.54" fill="#3c3b6e"/>
  <g fill="#fff" opacity=".98">
    <circle cx="3.2" cy="3" r=".75"/><circle cx="8" cy="3" r=".75"/><circle cx="12.8" cy="3" r=".75"/><circle cx="17.6" cy="3" r=".75"/><circle cx="22.4" cy="3" r=".75"/>
    <circle cx="5.6" cy="6.4" r=".75"/><circle cx="10.4" cy="6.4" r=".75"/><circle cx="15.2" cy="6.4" r=".75"/><circle cx="20" cy="6.4" r=".75"/>
    <circle cx="3.2" cy="9.8" r=".75"/><circle cx="8" cy="9.8" r=".75"/><circle cx="12.8" cy="9.8" r=".75"/><circle cx="17.6" cy="9.8" r=".75"/><circle cx="22.4" cy="9.8" r=".75"/>
    <circle cx="5.6" cy="13.2" r=".75"/><circle cx="10.4" cy="13.2" r=".75"/><circle cx="15.2" cy="13.2" r=".75"/><circle cx="20" cy="13.2" r=".75"/>
    <circle cx="3.2" cy="16.6" r=".75"/><circle cx="8" cy="16.6" r=".75"/><circle cx="12.8" cy="16.6" r=".75"/><circle cx="17.6" cy="16.6" r=".75"/><circle cx="22.4" cy="16.6" r=".75"/>
  </g>
</svg>
